<svg fill="#000000" version="1.1" id="Capa_1" xmlns="http://www.w3.org/2000/svg" xmlns:xlink="http://www.w3.org/1999/xlink" viewBox="0 0 32 32" xml:space="preserve"><g id="SVGRepo_bgCarrier" stroke-width="0"></g><g id="SVGRepo_tracerCarrier" stroke-linecap="round" stroke-linejoin="round"></g><g id="SVGRepo_iconCarrier"> <g> <path d="M27,0H5C2.239,0,0,2.24,0,5v22c0,2.762,2.239,5,5,5h22c2.762,0,5-2.238,5-5V5C32,2.24,29.762,0,27,0z M10.155,23.982 c-1.173,0-2.123-0.951-2.123-2.125c0-1.172,0.95-2.123,2.123-2.123c1.174,0,2.125,0.951,2.125,2.123 C12.28,23.031,11.329,23.982,10.155,23.982z M15.486,23.996c0-2.004-0.776-3.887-2.185-5.301c-1.405-1.414-3.276-2.191-5.267-2.191 v-3.066c5.799,0,10.518,4.736,10.518,10.56L15.486,23.996L15.486,23.996z M20.902,24c0-7.131-5.771-12.934-12.862-12.934V8 c8.782,0,15.929,7.178,15.929,16H20.902z"></path> </g> </g></svg>